<svg xmlns="http://www.w3.org/2000/svg" width="22.994" height="23" viewBox="0 0 22.994 23">
  <defs>
    <style>
      .cls-1 {
        fill: #8e8d8d;
      }
    </style>
  </defs>
  <g id="noun_Search_1580482" transform="translate(-3.162 -3.16)">
    <g id="Grupo_1" data-name="Grupo 1" transform="translate(3.162 3.16)">
      <path id="Caminho_1" data-name="Caminho 1" class="cls-1" d="M11.771,20.428a8.53,8.53,0,0,0,5.586-2.07l7.571,7.591a.718.718,0,1,0,1.017-1.015l-7.578-7.6a8.657,8.657,0,0,0-.506-11.647,8.594,8.594,0,0,0-12.182,0,8.658,8.658,0,0,0,0,12.209A8.543,8.543,0,0,0,11.771,20.428ZM6.7,6.7a7.161,7.161,0,0,1,10.147,0,7.217,7.217,0,0,1,0,10.178,7.161,7.161,0,0,1-10.147,0A7.217,7.217,0,0,1,6.7,6.7Z" transform="translate(-3.162 -3.16)"/>
    </g>
  </g>
</svg>
