<svg xmlns="http://www.w3.org/2000/svg" width="14.084" height="17.335" viewBox="0 0 14.084 17.335">
  <defs>
    <style>
      .cls-1 {
        fill: #9e9e9e;
      }
    </style>
  </defs>
  <g id="noun_Trash_2463858" transform="translate(-6 0)">
    <g id="_18_Trash" data-name="18 Trash" transform="translate(6)">
      <path id="Caminho_2" data-name="Caminho 2" class="cls-1" d="M18.459,2.167h-3.25V1.625A1.627,1.627,0,0,0,13.584,0H12.5a1.627,1.627,0,0,0-1.625,1.625v.542H7.625A1.627,1.627,0,0,0,6,3.792V4.875a.542.542,0,0,0,.542.542h.542V15.709a1.627,1.627,0,0,0,1.625,1.625h8.667A1.627,1.627,0,0,0,19,15.709V5.417h.542a.542.542,0,0,0,.542-.542V3.792a1.627,1.627,0,0,0-1.625-1.625Zm-6.5-.542a.542.542,0,0,1,.542-.542h1.083a.542.542,0,0,1,.542.542v.542H11.959Zm5.959,14.084a.542.542,0,0,1-.542.542H8.709a.542.542,0,0,1-.542-.542V5.417h9.751ZM19,4.334H7.083V3.792a.542.542,0,0,1,.542-.542H18.459A.542.542,0,0,1,19,3.792Z" transform="translate(-6)"/>
      <path id="Caminho_3" data-name="Caminho 3" class="cls-1" d="M30.542,34.5a.542.542,0,0,0,.542-.542V28.542a.542.542,0,0,0-1.083,0v5.417A.542.542,0,0,0,30.542,34.5Z" transform="translate(-23.5 -20.416)"/>
      <path id="Caminho_4" data-name="Caminho 4" class="cls-1" d="M40.542,34.5a.542.542,0,0,0,.542-.542V28.542a.542.542,0,1,0-1.083,0v5.417A.542.542,0,0,0,40.542,34.5Z" transform="translate(-30.791 -20.416)"/>
      <path id="Caminho_5" data-name="Caminho 5" class="cls-1" d="M20.542,34.5a.542.542,0,0,0,.542-.542V28.542a.542.542,0,0,0-1.083,0v5.417A.542.542,0,0,0,20.542,34.5Z" transform="translate(-16.208 -20.416)"/>
    </g>
  </g>
</svg>
