<svg xmlns="http://www.w3.org/2000/svg" width="6.496" height="5.568" viewBox="0 0 6.496 5.568">
  <defs>
    <style>
      .cls-1 {
        fill: #424242;
      }
    </style>
  </defs>
  <g id="noun_Arrow_2463731" transform="translate(426.666 -70.167) rotate(90)">
    <g id="Grupo_15" data-name="Grupo 15" transform="translate(70.167 420.17)">
      <path id="Caminho_7" data-name="Caminho 7" class="cls-1" d="M100,75.479V69.9l4.656,2.789Z" transform="translate(-99.538 -69.44)"/>
      <g id="Grupo_14" data-name="Grupo 14" transform="translate(0 0)">
        <path id="Caminho_8" data-name="Caminho 8" class="cls-1" d="M71.084,46.2V41.307c0-.225.008-.451,0-.677v-.009l-.689.395.461.277q.557.334,1.115.667.671.4,1.342.805.581.348,1.161.7c.189.113.375.232.567.339l.008,0v-.791l-.461.277q-.557.334-1.115.667-.671.4-1.342.805-.581.348-1.161.7c-.189.113-.379.223-.567.339l-.008,0a.458.458,0,0,0,.463.791l.461-.277q.557-.334,1.115-.667.671-.4,1.342-.805.581-.348,1.161-.7c.189-.113.379-.223.567-.339l.008,0a.462.462,0,0,0,0-.791l-.461-.277q-.557-.334-1.115-.667-.671-.4-1.342-.805-.581-.348-1.161-.7c-.189-.113-.375-.231-.567-.339l-.008,0a.462.462,0,0,0-.689.395v4.894c0,.225,0,.451,0,.677V46.2a.458.458,0,0,0,.915,0Z" transform="translate(-70.167 -40.162)"/>
      </g>
    </g>
  </g>
</svg>
